<svg xmlns="http://www.w3.org/2000/svg" width="156" height="29" viewBox="0 0 156 29" fill="none"><path d="M64.3927 15.7621H70.3009L67.5512 5.80352H67.1424L64.3927 15.7621ZM76.0605 17.5828C76.0853 18.4251 76.1162 19.286 76.1534 20.1654C76.1906 21.0448 76.2091 21.8933 76.2091 22.7108V23.2681C76.2091 23.7388 76.1906 24.1971 76.1534 24.643C76.1286 25.0765 76.0357 25.4729 75.8747 25.8321C75.7137 26.1789 75.4598 26.4576 75.113 26.6682C74.7661 26.8787 74.2769 26.984 73.6452 26.984C73.0011 26.984 72.5057 26.8787 72.1588 26.6682C71.812 26.4576 71.5519 26.1789 71.3785 25.8321C71.2175 25.4853 71.1184 25.0889 71.0812 24.643C71.0565 24.1971 71.0441 23.7388 71.0441 23.2681V20.667H63.6123V23.2681C63.6123 23.7388 63.5937 24.1971 63.5566 24.643C63.5318 25.0889 63.4327 25.4853 63.2593 25.8321C63.0983 26.1789 62.8444 26.4576 62.4976 26.6682C62.1507 26.8787 61.6553 26.984 61.0112 26.984C60.3671 26.984 59.8717 26.8787 59.5249 26.6682C59.178 26.4576 58.9241 26.1789 58.7631 25.8321C58.6021 25.4729 58.5092 25.0765 58.4844 24.643C58.4596 24.1971 58.4473 23.7388 58.4473 23.2681V22.7108C58.4473 22.3268 58.4473 21.918 58.4473 21.4845C58.4596 21.051 58.472 20.6113 58.4844 20.1654C58.4968 19.7195 58.5092 19.2798 58.5216 18.8462C58.534 18.4003 58.5464 17.9792 58.5587 17.5828C59.178 15.4276 59.8283 13.2477 60.5096 11.0429C61.1908 8.82577 61.8411 6.6334 62.4604 4.46581C62.5843 4.00752 62.7329 3.56781 62.9063 3.14667C63.0797 2.71316 63.3089 2.34157 63.5937 2.03191C63.8786 1.70987 64.244 1.45595 64.6899 1.27016C65.1358 1.07198 65.7056 0.972888 66.3992 0.972888H68.2572C68.9384 0.972888 69.502 1.07198 69.9479 1.27016C70.4062 1.45595 70.7778 1.70987 71.0627 2.03191C71.3475 2.34157 71.5705 2.71316 71.7315 3.14667C71.9049 3.56781 72.0597 4.00752 72.196 4.46581L76.0605 17.5828ZM80.8911 5.24614C80.8911 4.71353 80.9159 4.19331 80.9655 3.68548C81.015 3.17764 81.1327 2.72554 81.3185 2.32918C81.5166 1.92044 81.8015 1.5922 82.1731 1.34448C82.5447 1.09675 83.0587 0.972888 83.7152 0.972888C84.4212 0.972888 84.9724 1.09675 85.3688 1.34448C85.7651 1.5922 86.0562 1.92044 86.242 2.32918C86.4278 2.72554 86.5393 3.17764 86.5764 3.68548C86.626 4.19331 86.6507 4.71353 86.6507 5.24614V21.5217H90.2923C90.8001 21.5217 91.3018 21.5464 91.7972 21.596C92.2927 21.6455 92.7324 21.7632 93.1164 21.949C93.5127 22.1348 93.8286 22.4073 94.0639 22.7665C94.2993 23.1257 94.4169 23.6149 94.4169 24.2343C94.4169 24.866 94.2993 25.3676 94.0639 25.7392C93.8286 26.0984 93.5127 26.3709 93.1164 26.5567C92.7324 26.7425 92.2927 26.8601 91.7972 26.9097C91.3018 26.9592 90.8001 26.984 90.2923 26.984H85.0158C84.3593 26.984 83.7771 26.9592 83.2693 26.9097C82.7615 26.8601 82.3279 26.7425 81.9687 26.5567C81.6219 26.3709 81.3556 26.0984 81.1698 25.7392C80.984 25.3676 80.8911 24.866 80.8911 24.2343V5.24614ZM98.6902 5.24614C98.6902 4.71353 98.7149 4.19331 98.7645 3.68548C98.8264 3.17764 98.9565 2.72554 99.1547 2.32918C99.3652 1.92044 99.6749 1.5922 100.084 1.34448C100.492 1.09675 101.056 0.972888 101.774 0.972888C102.493 0.972888 103.056 1.09675 103.465 1.34448C103.874 1.5922 104.177 1.92044 104.375 2.32918C104.586 2.72554 104.716 3.17764 104.766 3.68548C104.828 4.19331 104.859 4.71353 104.859 5.24614V22.7108C104.859 23.2557 104.834 23.7822 104.784 24.29C104.735 24.7978 104.605 25.2561 104.394 25.6649C104.196 26.0612 103.886 26.3833 103.465 26.631C103.056 26.8663 102.493 26.984 101.774 26.984C101.056 26.984 100.492 26.8663 100.084 26.631C99.6749 26.3833 99.3652 26.0612 99.1547 25.6649C98.9565 25.2561 98.8264 24.7978 98.7645 24.29C98.7149 23.7822 98.6902 23.2557 98.6902 22.7108V5.24614ZM127.86 25.2747C127.86 25.4357 127.841 25.6215 127.804 25.8321C127.779 26.0427 127.699 26.247 127.563 26.4452C127.439 26.631 127.253 26.792 127.005 26.9283C126.757 27.0645 126.423 27.1326 126.002 27.1326C125.531 27.1326 125.16 27.0707 124.887 26.9468C124.615 26.8106 124.404 26.6496 124.255 26.4638C124.119 26.2656 124.026 26.0612 123.977 25.8507C123.94 25.6401 123.921 25.4481 123.921 25.2747V24.1599C123.326 25.0394 122.565 25.7578 121.636 26.3151C120.719 26.8601 119.586 27.1326 118.236 27.1326C118 27.1326 117.635 27.1141 117.139 27.0769C116.644 27.0397 116.087 26.9407 115.467 26.7796C114.848 26.6186 114.21 26.3771 113.554 26.055C112.897 25.733 112.296 25.2871 111.751 24.7173C111.219 24.1352 110.779 23.4168 110.432 22.5621C110.086 21.6951 109.912 20.6422 109.912 19.4036V8.99918C109.912 7.9835 110.036 7.0855 110.284 6.30517C110.531 5.52483 110.853 4.84978 111.25 4.28002C111.659 3.69786 112.123 3.2148 112.643 2.83082C113.164 2.43446 113.696 2.10623 114.241 1.84612C115.505 1.25158 116.948 0.910957 118.57 0.824253C119.945 0.824253 121.122 0.979081 122.1 1.28874C123.079 1.59839 123.909 2.00095 124.59 2.4964C125.271 2.99185 125.816 3.55542 126.225 4.18712C126.634 4.80643 126.949 5.43813 127.172 6.08221C127.395 6.7263 127.538 7.34561 127.6 7.94015C127.674 8.53469 127.711 9.04872 127.711 9.48224C127.711 9.66803 127.693 9.89718 127.655 10.1697C127.631 10.4298 127.525 10.6837 127.34 10.9314C127.154 11.1668 126.856 11.3711 126.448 11.5445C126.051 11.7056 125.482 11.7861 124.738 11.7861C124.478 11.7861 124.156 11.7737 123.772 11.7489C123.401 11.7118 123.042 11.6313 122.695 11.5074C122.348 11.3835 122.051 11.2039 121.803 10.9686C121.555 10.7209 121.431 10.3864 121.431 9.9653C121.431 9.29645 121.388 8.70191 121.301 8.18168C121.227 7.64907 121.085 7.19698 120.874 6.82539C120.663 6.4538 120.372 6.17511 120.001 5.98932C119.629 5.79114 119.152 5.69205 118.57 5.69205C117.963 5.69205 117.492 5.81591 117.158 6.06364C116.836 6.31136 116.601 6.58386 116.452 6.88113C116.279 7.22794 116.18 7.6243 116.155 8.07021V19.961C116.155 20.3574 116.223 20.729 116.359 21.0758C116.508 21.4226 116.712 21.726 116.972 21.9862C117.232 22.2463 117.536 22.4506 117.883 22.5993C118.242 22.7479 118.632 22.8222 119.053 22.8222C119.549 22.8222 119.995 22.7169 120.391 22.5064C120.8 22.2834 121.165 21.9923 121.487 21.6331C121.809 21.2616 122.094 20.8466 122.342 20.3883C122.602 19.9177 122.831 19.4284 123.029 18.9206H121.246C120.886 18.8834 120.57 18.7905 120.298 18.6419C120.05 18.518 119.827 18.3322 119.629 18.0845C119.443 17.8368 119.35 17.4961 119.35 17.0626C119.35 16.5919 119.443 16.2327 119.629 15.985C119.827 15.7249 120.05 15.5329 120.298 15.4091C120.57 15.2728 120.886 15.1923 121.246 15.1675H126.076C126.163 15.1675 126.299 15.1861 126.485 15.2233C126.683 15.248 126.881 15.3347 127.079 15.4834C127.29 15.632 127.47 15.855 127.618 16.1522C127.779 16.4371 127.86 16.8397 127.86 17.3599V25.2747ZM146.439 19.2921H146.885V3.87127C146.885 3.47491 146.91 3.10332 146.959 2.75651C147.009 2.39731 147.114 2.08765 147.275 1.82754C147.449 1.56743 147.696 1.36305 148.018 1.21442C148.353 1.0534 148.805 0.972888 149.375 0.972888C150.006 0.972888 150.502 1.0534 150.861 1.21442C151.233 1.36305 151.511 1.56743 151.697 1.82754C151.883 2.08765 152.001 2.39731 152.05 2.75651C152.1 3.10332 152.124 3.47491 152.124 3.87127V22.7108C152.124 23.2557 152.106 23.7822 152.069 24.29C152.044 24.7978 151.945 25.2561 151.771 25.6649C151.61 26.0612 151.338 26.3833 150.954 26.631C150.582 26.8663 150.056 26.984 149.375 26.984H146.922C146.34 26.984 145.851 26.8725 145.454 26.6496C145.07 26.4142 144.748 26.1355 144.488 25.8135C144.228 25.4791 144.018 25.1323 143.857 24.7731C143.708 24.4139 143.59 24.1104 143.504 23.8627L137.893 8.66475H137.447V24.0856C137.447 24.482 137.422 24.8598 137.372 25.219C137.323 25.5658 137.211 25.8692 137.038 26.1294C136.877 26.3895 136.629 26.6 136.295 26.7611C135.973 26.9097 135.527 26.984 134.957 26.984C134.313 26.984 133.805 26.9097 133.434 26.7611C133.062 26.6 132.783 26.3895 132.598 26.1294C132.412 25.8692 132.294 25.5658 132.245 25.219C132.195 24.8598 132.17 24.482 132.17 24.0856V5.24614C132.17 4.71353 132.183 4.19331 132.207 3.68548C132.245 3.16525 132.35 2.70696 132.523 2.3106C132.697 1.90186 132.969 1.57981 133.341 1.34448C133.725 1.09675 134.263 0.972888 134.957 0.972888H137.41C138.029 0.972888 138.531 1.09675 138.915 1.34448C139.311 1.57981 139.633 1.83993 139.881 2.12481C140.153 2.45924 140.37 2.84321 140.531 3.27673L146.439 19.2921Z" fill="white"></path><mask id="mask0_2007_556" style="mask-type:alpha" maskUnits="userSpaceOnUse" x="-1" y="0" width="53" height="29"><rect x="-0.00012207" width="51.1681" height="28.1391" fill="url(#paint0_linear_2007_556)"></rect></mask><g mask="url(#mask0_2007_556)"><path d="M29.5657 6.91767C34.8483 1.40683 44.2947 3.17612 46.8393 10.34C48.637 14.6847 46.8272 20.2911 42.8326 22.7965C39.474 25.1861 34.6808 25.0182 31.3843 22.6077C28.3248 20.3177 26.3132 16.8134 23.7497 13.9968C22.134 12.5783 19.8148 7.07373 17.37 9.59483C15.9388 11.745 19.6639 14.1415 20.7014 15.9218C24.2324 19.7821 26.8391 24.8592 31.7675 27.0563C38.3083 29.8456 46.7827 27.0149 49.7499 20.4024C53.4754 12.6578 49.5897 3.08653 41.2706 0.475156C37.2805 -0.52047 32.797 -0.0005754 29.4296 2.50268C26.306 4.58775 27.5995 4.57871 29.5723 6.92419L29.5657 6.91767Z" fill="url(#paint1_linear_2007_556)"></path><path d="M13.8981 3.58834C18.7686 3.28526 21.9365 7.27909 24.6502 10.7317C26.854 13.4583 28.9885 16.179 31.2856 18.8144C32.5524 19.9446 34.832 18.444 34.1236 16.8723C31.175 12.5664 27.4018 8.68134 24.1348 4.54713C17.9336 -2.85028 4.66801 -0.72379 1.17519 8.35527C-4.21403 21.1168 10.0259 33.6372 21.6702 25.6064C22.5485 24.9099 24.5915 23.9408 23.0351 22.8777C22.5727 22.4858 21.798 20.7115 21.1175 21.5428C18.4802 24.2221 14.1192 25.3268 10.5859 23.9259C-0.392846 20.234 2.43889 3.47725 13.8981 3.58834Z" fill="url(#paint2_linear_2007_556)"></path></g><defs><linearGradient id="paint0_linear_2007_556" x1="2.21389" y1="4.76905" x2="47.9702" y2="25.0922" gradientUnits="userSpaceOnUse"><stop stop-color="#ED504E"></stop><stop offset="1" stop-color="#F18E3D"></stop></linearGradient><linearGradient id="paint1_linear_2007_556" x1="18.5233" y1="4.7666" x2="52.106" y2="14.7185" gradientUnits="userSpaceOnUse"><stop stop-color="#ED504E"></stop><stop offset="1" stop-color="#F18E3D"></stop></linearGradient><linearGradient id="paint2_linear_2007_556" x1="1.48229" y1="4.83046" x2="35.1655" y2="14.8731" gradientUnits="userSpaceOnUse"><stop stop-color="#ED504E"></stop><stop offset="1" stop-color="#F18E3D"></stop></linearGradient></defs></svg>